{"title":"S.W.A.T.Firefight.2011.720p.x264.Feel-Free","uid":6177322,"size":2313379449,"categoryP":"video","categoryS":"hd___movies","magnet":"?xt=urn:btih:64e41b06fba171df19c02e178ecfa629a8054659&amp;dn=S.W.A.T.Firefight.2011.720p.x264.Feel-Free&amp;tr=udp%3A%2F%2Ftracker.openbittorrent.com%3A80&amp;tr=udp%3A%2F%2Fopen.demonii.com%3A1337&amp;tr=udp%3A%2F%2Ftracker.coppersurfer.tk%3A6969&amp;tr=udp%3A%2F%2Fexodus.desync.com%3A6969","seeders":0,"leechers":1,"uploader":".BONE.","files":11,"time":1297814729,"description":"\n\nGenre: Action\nLanguage:English\n\nIMDb:http://www.imdb.com/title/tt1621429/\n\nSource:BluRay.1080p\n\n\nFormat : MPEG-4\nFormat profile : Base Media\nCodec ID : isom\nFile size : 2.15 GiB\nDuration : 1h 28mn\nOverall bit rate : 3 468 Kbps\n\n\nVideo\nFormat settings, CABAC : Yes\nFormat settings, ReFrames : 3 frames\nCodec ID : avc1\nCodec ID/Info : Advanced Video Coding\nDuration : 1h 28mn\nBit rate mode : Variable\nBit rate : 3 099 Kbps\nMaximum bit rate : 23.9 Mbps\nWidth : 1 280 pixels\nHeight : 720 pixels\nDisplay aspect ratio : 16:9\nFrame rate mode : Constant\nFrame rate : 23.976 fps\nColor space : YUV\nChroma subsampling : 4:2:0\nBit depth : 8 bits\nScan type : Progressive\nBits/(Pixel*Frame) : 0.140\nStream size : 1.87 GiB (87%)\nWriting library : x264\n\n\nAudio\nID : 2\nFormat : AAC\nFormat/Info : Advanced Audio Codec\nFormat version : Version 4\nFormat profile : LC\nFormat settings, SBR : No\nCodec ID : 40\nDuration : 1h 28mn\nBit rate mode : Variable\nBit rate : 444 Kbps\nMaximum bit rate : 581 Kbps\nChannel(s) : 6 channels\nChannel positions : Front: L C R, Side: L R, LFE\nSampling rate : 48.0 KHz\nStream size : 282 MiB (13%)\n &lt;a href=&quot;\nhttp://shareimage.org/images/ke3xv94rnkgw7ksu4gb6.png&quot; rel=&quot;nofollow&quot; target=&quot;_NEW&quot;&gt;\nhttp://shareimage.org/images/ke3xv94rnkgw7ksu4gb6.png&lt;/a&gt;\n &lt;a href=&quot;\nhttp://shareimage.org/images/rqz58ir9eemrzg8jub3x.png&quot; rel=&quot;nofollow&quot; target=&quot;_NEW&quot;&gt;\nhttp://shareimage.org/images/rqz58ir9eemrzg8jub3x.png&lt;/a&gt;\n &lt;a href=&quot;\nhttp://shareimage.org/images/u698ztllynk8a8co569c.png&quot; rel=&quot;nofollow&quot; target=&quot;_NEW&quot;&gt;\nhttp://shareimage.org/images/u698ztllynk8a8co569c.png&lt;/a&gt;\n &lt;a href=&quot;\nhttp://shareimage.org/images/q78kjbbhn9spfjmqyh3o.png&quot; rel=&quot;nofollow&quot; target=&quot;_NEW&quot;&gt;\nhttp://shareimage.org/images/q78kjbbhn9spfjmqyh3o.png&lt;/a&gt;\n &lt;a href=&quot;\nhttp://shareimage.org/images/nrcnltnwxdif2l87bon.png&quot; rel=&quot;nofollow&quot; target=&quot;_NEW&quot;&gt;\nhttp://shareimage.org/images/nrcnltnwxdif2l87bon.png&lt;/a&gt;","torrent":{"xt":"urn:btih:64e41b06fba171df19c02e178ecfa629a8054659","amp;dn":"S.W.A.T.Firefight.2011.720p.x264.Feel-Free","amp;tr":["udp%3A%2F%2Ftracker.openbittorrent.com%3A80","udp%3A%2F%2Fopen.demonii.com%3A1337","udp%3A%2F%2Ftracker.coppersurfer.tk%3A6969","udp%3A%2F%2Fexodus.desync.com%3A6969"],"infoHash":"64e41b06fba171df19c02e178ecfa629a8054659","infoHashBuffer":{"type":"Buffer","data":[100,228,27,6,251,161,113,223,25,192,46,23,142,207,166,41,168,5,70,89]},"announce":[],"urlList":[]}}